<svg width="100" height="100" viewBox="0 0 100 100" fill="none" xmlns="http://www.w3.org/2000/svg">
<path d="M87.5 31.25H12.5C11.6712 31.25 10.8763 30.9208 10.2903 30.3347C9.70424 29.7487 9.375 28.9538 9.375 28.125C9.375 27.2962 9.70424 26.5013 10.2903 25.9153C10.8763 25.3292 11.6712 25 12.5 25H87.5C88.3288 25 89.1237 25.3292 89.7097 25.9153C90.2958 26.5013 90.625 27.2962 90.625 28.125C90.625 28.9538 90.2958 29.7487 89.7097 30.3347C89.1237 30.9208 88.3288 31.25 87.5 31.25Z" fill="#E3E3E3"/>
<path d="M87.5 53.125H12.5C11.6712 53.125 10.8763 52.7958 10.2903 52.2097C9.70424 51.6237 9.375 50.8288 9.375 50C9.375 49.1712 9.70424 48.3763 10.2903 47.7903C10.8763 47.2042 11.6712 46.875 12.5 46.875H87.5C88.3288 46.875 89.1237 47.2042 89.7097 47.7903C90.2958 48.3763 90.625 49.1712 90.625 50C90.625 50.8288 90.2958 51.6237 89.7097 52.2097C89.1237 52.7958 88.3288 53.125 87.5 53.125Z" fill="#E3E3E3"/>
<path d="M87.5 75H12.5C11.6712 75 10.8763 74.6708 10.2903 74.0847C9.70424 73.4987 9.375 72.7038 9.375 71.875C9.375 71.0462 9.70424 70.2513 10.2903 69.6653C10.8763 69.0792 11.6712 68.75 12.5 68.75H87.5C88.3288 68.75 89.1237 69.0792 89.7097 69.6653C90.2958 70.2513 90.625 71.0462 90.625 71.875C90.625 72.7038 90.2958 73.4987 89.7097 74.0847C89.1237 74.6708 88.3288 75 87.5 75Z" fill="#E3E3E3"/>
</svg>
