<svg width="169" height="169" viewBox="0 0 169 169" fill="none" xmlns="http://www.w3.org/2000/svg">
<g clip-path="url(#clip0_2_20)">
<path d="M3.09482 3.09482C5.07558 1.11465 7.76171 0.00225854 10.5625 0.00225854C13.3633 0.00225854 16.0494 1.11465 18.0302 3.09482L84.5 69.5646L150.97 3.09482C151.944 2.08599 153.11 1.28131 154.398 0.727744C155.687 0.174174 157.073 -0.117205 158.476 -0.129392C159.878 -0.14158 161.269 0.12567 162.567 0.656762C163.865 1.18785 165.044 1.97215 166.036 2.96389C167.028 3.95564 167.812 5.13496 168.343 6.43305C168.874 7.73114 169.142 9.12201 169.129 10.5245C169.117 11.927 168.826 13.313 168.272 14.6016C167.719 15.8903 166.914 17.0558 165.905 18.0302L99.4354 84.5L165.905 150.97C167.829 152.962 168.894 155.63 168.87 158.399C168.846 161.169 167.735 163.818 165.777 165.777C163.818 167.735 161.169 168.846 158.399 168.87C155.63 168.894 152.962 167.829 150.97 165.905L84.5 99.4354L18.0302 165.905C16.0381 167.829 13.37 168.894 10.6005 168.87C7.83106 168.846 5.18185 167.735 3.22348 165.777C1.26511 163.818 0.154261 161.169 0.130196 158.399C0.10613 155.63 1.17077 152.962 3.09482 150.97L69.5646 84.5L3.09482 18.0302C1.11465 16.0494 0.0022583 13.3633 0.0022583 10.5625C0.0022583 7.76171 1.11465 5.07558 3.09482 3.09482V3.09482Z" fill="#F1F1F1"/>
</g>
<defs>
<clipPath id="clip0_2_20">
<rect width="169" height="169" fill="white"/>
</clipPath>
</defs>
</svg>
